# xmcd CD database file
# Copyright (C) 1993-1998 Ti Kan
# 
# Track frame offsets:
#     150
#     12127
#     26515
#     40700
#     52042
#     64412
#     73862
#     85802
#     95012
#     109717
#     120022
#     132545
#     144477
#     158807
#     171235
#     185132
#     197297
#     211722
#     225072
#     239037
# 
# Disc length: 3397 seconds
# 
# Revision: 1
# Processed by: cddbd v1.4b41PL1 Copyright (c) Steve Scherf et al.
# Submitted via: DiscPlay 4.0.4
# 
DISCID=0e0d4314
DTITLE=Ernest Tubb - Ernest Tubb the Legend and the Legacy
DYEAR=1900
DGENRE=
TTITLE0=Waltz Across Texas
TTITLE1=When the World has Turned you Down
TTITLE2=Let's Say Goodbye Like We Said Hello
TTITLE3=Answer the Phone
TTITLE4=Journey's End
TTITLE5=Walkin' the Floor Over You
TTITLE6=Half a Mind
TTITLE7=Jealous Lovin' Heart
TTITLE8=Rainbow at Midnight
TTITLE9=Set Up 2 Glasses, Joe
TTITLE10=You Nearly Lose Your Mind
TTITLE11=You're the Only Good Thing
TTITLE12=Filipino Baby
TTITLE13=Jimmie Rodgers' Last Blue Yodel
TTITLE14=Seaman's Blues
TTITLE15=Thanks a Lot
TTITLE16=It's Been So Long Darling
TTITLE17=Blue-Eyed Elaine
TTITLE18=Our Baby's Book
TTITLE19=Soldier's Last Letter
EXTD=
EXTT0=
EXTT1=
EXTT2=
EXTT3=
EXTT4=
EXTT5=
EXTT6=
EXTT7=
EXTT8=
EXTT9=
EXTT10=
EXTT11=
EXTT12=
EXTT13=
EXTT14=
EXTT15=
EXTT16=
EXTT17=
EXTT18=
EXTT19=
PLAYORDER=
